<svg width="134" height="40" viewBox="0 0 134 40" fill="none" xmlns="http://www.w3.org/2000/svg">
<g clip-path="url(#clip0_8002_31)">
<path d="M36.5306 8.74357V15.5682C36.5314 18.1469 36.0237 20.7005 35.0367 23.083C34.0497 25.4654 32.6026 27.6299 30.7782 29.4528H13.523L19.277 23.6962L27.7425 27.9292C30.0086 29.0638 30.6298 27.8507 30.7765 26.7622V14.0104C30.7763 13.4344 30.8897 12.8639 31.1102 12.3317C31.3307 11.7994 31.6539 11.3159 32.0615 10.9087L35.5494 7.42301C32.3698 3.49261 27.8197 0.91176 22.8142 0.199559C17.8087 -0.512641 12.7192 0.696643 8.56926 3.58418H15.5451C18.1247 3.58396 20.679 4.09176 23.0623 5.07859C25.4456 6.06543 27.6111 7.51196 29.4353 9.3356V26.5916L23.6813 20.8402L27.9149 12.3742C28.3039 11.5962 28.4166 11.0093 28.35 10.576C28.2289 9.73655 27.461 9.43285 26.7477 9.33901H13.9871C13.4109 9.3389 12.8403 9.22522 12.308 9.00449C11.7756 8.78375 11.2921 8.46028 10.8849 8.05258L7.34747 4.50891C3.44703 7.69497 0.892283 12.235 0.193506 17.2221C-0.50527 22.2092 0.703366 27.2764 3.578 31.4114V24.5698C3.57564 21.9911 4.08171 19.4372 5.06728 17.0541C6.05285 14.6711 7.49858 12.5057 9.32179 10.6818H26.5788L20.8264 16.4332L12.3575 12.2002C10.0914 11.0656 9.46854 12.2787 9.3235 13.3672V26.119C9.32288 27.2826 8.86008 28.3983 8.03686 29.2207L4.55066 32.7081C7.72062 36.5589 12.2149 39.0869 17.1524 39.7965C22.0899 40.506 27.1143 39.3459 31.2407 36.5435H24.5532C19.3442 36.5431 14.3486 34.4744 10.6647 30.7921V13.5378L16.4171 19.2893L12.1834 27.7552C11.7944 28.5332 11.6818 29.1201 11.7466 29.5534C11.8678 30.3946 12.6356 30.6966 13.3523 30.7904H26.1027C26.6795 30.7904 27.2506 30.9039 27.7835 31.1247C28.3164 31.3454 28.8006 31.669 29.2083 32.0768L32.6348 35.5028C36.5163 32.3396 39.07 27.8358 39.7913 22.8812C40.5126 17.9267 39.3491 12.8819 36.5306 8.74357Z" fill="url(#paint0_linear_8002_31)"/>
<path d="M55.4779 18.6078C55.0865 18.4567 54.7163 18.2543 54.377 18.0059C54.0183 17.7389 53.6807 17.4443 53.3671 17.1246L52.4053 16.1531C51.9759 15.5968 51.5476 15.0718 51.1205 14.578C50.6934 14.0841 50.2807 13.5591 49.8822 13.0028C49.4837 12.4465 49.0709 11.9214 48.6438 11.4276C48.2084 10.9126 47.9793 10.2517 48.0015 9.57485L48.5511 8.64848C48.6802 8.58214 48.8032 8.50435 48.9186 8.41602C49.0277 8.33009 49.1527 8.26699 49.2862 8.2304C49.4366 8.19609 49.5906 8.18036 49.7448 8.18356H50.1999L51.2116 8.83931C51.6398 9.39675 52.0835 9.95303 52.5427 10.5082C53.0018 11.0633 53.4449 11.6346 53.872 12.2221C54.2966 12.8051 54.7555 13.3618 55.2461 13.8892C55.7464 14.4221 56.3002 14.9012 56.8984 15.3187L57.2642 15.4106C57.501 15.3537 57.7214 15.242 57.9083 15.0845C58.0921 14.9301 58.2758 14.7618 58.4579 14.5762L59.0092 14.0194L59.5588 13.4642C59.9264 13.0328 60.2785 12.5847 60.6151 12.1198C60.9518 11.6549 61.3033 11.2073 61.6697 10.7771C62.0361 10.3445 62.3876 9.89694 62.7243 9.43433C63.0594 8.97116 63.4798 8.57768 63.9626 8.2755L65.0636 8.18182L65.9807 8.73869C66.0466 8.8686 66.123 8.99277 66.2092 9.10993C66.2952 9.21884 66.3578 9.34469 66.393 9.47944C66.4269 9.63137 66.4425 9.7869 66.4393 9.94262V10.4006C66.0758 11.0788 65.6454 11.7181 65.1546 12.3089C64.6657 12.8952 64.1916 13.4822 63.7325 14.0697C63.2733 14.6572 62.7844 15.2441 62.2657 15.8305C61.7458 16.4168 61.2105 16.9881 60.6598 17.5444C60.3541 17.7908 60.0638 18.007 59.789 18.1932C59.5022 18.3832 59.1944 18.5387 58.8718 18.6564C58.5352 18.7802 58.1837 18.8883 57.8172 18.9808C57.4573 19.0727 57.0824 19.0881 56.7163 19.0259C56.2869 18.9022 55.8741 18.7628 55.4779 18.6078ZM49.3772 31.3481C49.2491 31.3465 49.1232 31.3144 49.0097 31.2544C48.8914 31.1957 48.7835 31.1177 48.6902 31.0237L48.369 30.6975C48.3138 30.586 48.2525 30.4777 48.1852 30.3731C48.1207 30.2741 48.0742 30.1642 48.0478 30.0487C48.0153 29.9118 47.9997 29.7714 48.0015 29.6306V29.2143C48.3041 28.5395 48.7059 27.9149 49.1934 27.3615C49.6835 26.8064 50.1576 26.2351 50.6156 25.6476C51.0736 25.0601 51.5316 24.4887 51.9896 23.9336C52.4476 23.3762 52.952 22.8205 53.5028 22.2665C53.8085 22.0184 54.1005 21.7877 54.3753 21.5726C54.6465 21.3586 54.9382 21.1727 55.2461 21.0175C55.5501 20.863 55.8747 20.7538 56.2096 20.6931C56.5463 20.6306 56.8978 20.5687 57.2642 20.5074C57.6983 20.57 58.1275 20.6627 58.5489 20.785C58.9724 20.9062 59.3746 21.0935 59.7409 21.3401C60.1084 21.5876 60.46 21.8501 60.7955 22.1277C61.146 22.421 61.4686 22.7469 61.759 23.1009C62.1873 23.6572 62.631 24.2135 63.0901 24.7698C63.5493 25.3261 63.9924 25.8662 64.4195 26.3901C64.8477 26.9151 65.2909 27.4558 65.7489 28.0121C66.2024 28.5555 66.4464 29.2461 66.4359 29.9568L65.7025 31.0688L64.6016 31.44C64.4705 31.375 64.3312 31.3283 64.1876 31.3012C64.045 31.2728 63.9064 31.2261 63.7754 31.1624C63.6568 31.1027 63.5483 31.0243 63.4542 30.93L63.133 30.6056C62.7048 30.0504 62.2617 29.4947 61.8037 28.9385C61.3457 28.3822 60.902 27.8265 60.4726 27.2713C60.0443 26.715 59.5863 26.1588 59.0985 25.6025C58.6212 25.058 58.0646 24.5901 57.448 24.2147H56.9894C56.3177 24.6457 55.7143 25.1767 55.1997 25.7898C54.681 26.4074 54.1766 27.025 53.6865 27.6426L52.2198 29.4953C51.7175 30.1268 51.1649 30.7157 50.5675 31.2561L49.7431 31.4417C49.6301 31.3819 49.5048 31.3499 49.3772 31.3481Z" fill="#8B85FF"/>
<path d="M68.3663 31.2544L67.9077 30.4199V11.8907C67.9682 11.6468 68.0141 11.3995 68.0451 11.15C68.0782 10.8935 68.1416 10.6418 68.234 10.4006L68.5089 9.65982C68.599 9.4169 68.7395 9.19627 68.9211 9.01275C69.046 8.88858 69.1849 8.7797 69.335 8.68835C69.4944 8.59284 69.6637 8.51546 69.84 8.45762C70.0322 8.39358 70.2335 8.36193 70.4359 8.36394H71.0319C71.1539 8.42639 71.2913 8.48885 71.4441 8.54956C71.603 8.61444 71.7563 8.69218 71.9027 8.78202C72.0455 8.86707 72.1836 8.95973 72.3167 9.05959C72.4461 9.15876 72.5684 9.26717 72.6825 9.38399C73.5863 10.6015 74.3682 11.9067 75.0166 13.2803C75.659 14.6392 76.318 15.9825 76.9935 17.3102C77.6691 18.6379 78.3418 19.9812 79.0117 21.3401L81.0298 25.4168L81.1156 25.3197V9.57482L81.6653 8.64845C81.7941 8.5817 81.9171 8.50393 82.0328 8.41599C82.1415 8.33041 82.2658 8.26734 82.3987 8.23036C82.5491 8.19626 82.7031 8.18053 82.8572 8.18353H83.3158L84.2347 8.74039L84.6933 9.57482V28.104C84.632 28.3484 84.5856 28.5964 84.5542 28.8465C84.5249 29.0995 84.466 29.3481 84.379 29.5872L84.1025 30.328C84.0136 30.572 83.8729 30.7935 83.6902 30.9768C83.5663 31.1013 83.4279 31.2102 83.278 31.3012C83.1187 31.3967 82.9493 31.4741 82.7731 31.5319C82.5808 31.5958 82.3795 31.6274 82.1771 31.6256H81.5811C81.4592 31.5631 81.32 31.5024 81.1672 31.44C81.0084 31.3751 80.855 31.2974 80.7086 31.2075C80.5661 31.1229 80.4285 31.0302 80.2964 30.9299C80.1663 30.8309 80.0435 30.7225 79.9288 30.6055C79.0214 29.3879 78.236 28.0821 77.5844 26.7075C76.9432 25.3497 76.2859 24.0064 75.6126 22.6776C74.9393 21.3488 74.2666 20.0055 73.5945 18.6477L71.5764 14.571L71.4854 14.6629V30.4199L70.934 31.348C70.8054 31.4135 70.6829 31.4908 70.5682 31.5788C70.4589 31.6644 70.334 31.7274 70.2006 31.7644C70.0502 31.7987 69.8962 31.8144 69.7421 31.8112H69.2835L68.3663 31.2544Z" fill="#8B85FF"/>
<path d="M93.2726 31.4868C92.6862 31.3304 92.1175 31.113 91.5756 30.838C91.0378 30.5691 90.5299 30.2428 90.0607 29.8648C89.5805 29.4728 89.1357 29.0385 88.7314 28.5672C88.174 27.8769 87.7118 27.1136 87.3573 26.2981C86.9951 25.4827 86.7177 24.6316 86.5295 23.7584C86.3469 22.9022 86.2394 22.0314 86.2083 21.1562C86.1774 20.2911 86.1625 19.3954 86.1636 18.469L86.5295 16.245C86.6541 15.4954 86.8699 14.7642 87.1718 14.0679C87.4781 13.3567 87.8465 12.6746 88.2728 12.0295C88.7016 11.3801 89.2277 10.8018 89.8323 10.3156C90.3644 9.89512 90.9323 9.52301 91.5292 9.20356C92.1094 8.89526 92.7257 8.66212 93.3636 8.50965C94.0108 8.3549 94.6709 8.26197 95.3353 8.23208C96.0086 8.20085 96.6813 8.18524 97.3534 8.18524C97.9426 8.24313 98.5258 8.35166 99.0968 8.50965C99.6664 8.67162 100.219 8.8889 100.747 9.15845C101.295 9.4346 101.817 9.76034 102.307 10.1317C102.808 10.5146 103.269 10.9495 103.681 11.4293C104.238 12.12 104.7 12.8832 105.055 13.6984C105.416 14.517 105.692 15.371 105.879 16.2468C106.062 17.1029 106.169 17.9737 106.201 18.8489C106.231 19.7152 106.247 20.6109 106.247 21.5361L105.885 23.7584C105.76 24.508 105.544 25.2392 105.242 25.9355C104.936 26.6466 104.569 27.3288 104.143 27.9739C103.714 28.6229 103.188 29.2011 102.583 29.6878C102.082 30.1281 101.526 30.5017 100.931 30.7998C100.33 31.1041 99.696 31.3369 99.0418 31.4937C98.3946 31.6486 97.7345 31.7415 97.0701 31.7713C96.3968 31.8025 95.7241 31.8181 95.0519 31.8181C94.4512 31.7547 93.8562 31.6439 93.2726 31.4868ZM100.381 26.7613C100.633 26.5369 100.863 26.2888 101.068 26.0205C101.27 25.764 101.439 25.4838 101.573 25.1861C101.708 24.8837 101.861 24.5899 102.032 24.3065C102.154 23.8728 102.262 23.4392 102.353 23.0089C102.444 22.5787 102.525 22.1277 102.583 21.6645C102.643 21.2194 102.673 20.7709 102.674 20.3218V18.9339C102.613 18.4395 102.537 17.9451 102.444 17.4507C102.355 16.964 102.233 16.4841 102.078 16.0143C101.918 15.5357 101.719 15.0715 101.482 14.6265C101.239 14.1665 100.93 13.7451 100.565 13.3757C100.22 13.0834 99.8519 12.82 99.4643 12.5881C99.0757 12.3639 98.6593 12.193 98.226 12.0798C97.7906 11.9595 97.3449 11.8816 96.8949 11.8474C96.4666 11.8161 96.0086 11.8005 95.5208 11.8005C95.1544 11.863 94.8029 11.9248 94.4662 11.9861C94.131 12.047 93.806 12.1556 93.501 12.3088C93.1981 12.4594 92.905 12.6291 92.6233 12.8171C92.3485 13.0027 92.0565 13.2178 91.7508 13.4659C91.2717 13.9466 90.8835 14.5115 90.6052 15.133C90.3327 15.7431 90.1326 16.3837 90.0092 17.0413C89.8852 17.6987 89.8083 18.3642 89.7791 19.0328C89.7482 19.7128 89.7327 20.3923 89.7327 21.0712C89.7945 21.5662 89.8712 22.0606 89.9628 22.5544C90.0525 23.0412 90.1753 23.5211 90.3304 23.9908C90.4897 24.4697 90.6891 24.9339 90.9264 25.3786C91.1687 25.8394 91.4778 26.261 91.8436 26.6294C92.1881 26.9225 92.5564 27.186 92.9445 27.417C93.333 27.6415 93.7495 27.8125 94.1829 27.9253C94.6176 28.0455 95.0628 28.1233 95.5122 28.1578C95.9405 28.189 96.3985 28.2046 96.8863 28.2046C97.1281 28.1425 97.3737 28.0961 97.6214 28.0658C97.8536 28.0369 98.0833 27.9899 98.3084 27.9253C98.5272 27.8623 98.7417 27.7853 98.9508 27.6946C99.1589 27.6053 99.3585 27.4967 99.5468 27.3702C99.8421 27.1922 100.121 26.9885 100.381 26.7613Z" fill="#8B85FF"/>
<path d="M108.615 28.9505C108.546 28.8813 108.492 28.7987 108.455 28.7076L108.349 28.4388C108.312 28.3443 108.294 28.2436 108.296 28.1421V27.8177L108.615 27.2245C108.684 27.1552 108.766 27.1003 108.856 27.0631L109.124 26.9556C109.217 26.9186 109.317 26.9004 109.417 26.9018H109.737L110.326 27.2245C110.394 27.294 110.449 27.3765 110.486 27.4673L110.592 27.7379C110.629 27.8323 110.647 27.9331 110.645 28.0346V28.3572L110.326 28.9505C110.257 29.0205 110.176 29.0759 110.085 29.1136L109.817 29.2211C109.724 29.2581 109.624 29.2763 109.524 29.2749H109.203L108.615 28.9505Z" fill="#49DFBA"/>
<path d="M116.362 31.6482L115.934 31.4331C115.786 31.3563 115.651 31.2561 115.534 31.1364L115.19 30.7895C114.59 29.9379 114.138 28.9893 113.854 27.9843C113.569 26.9758 113.302 25.9778 113.054 24.9901C112.805 24.0024 112.529 23.0043 112.226 21.9959C111.926 21.004 111.685 19.9949 111.504 18.9739L111.824 18.4344L112.039 18.3268L112.252 18.2192C112.326 18.1823 112.409 18.1639 112.492 18.1655H112.732L113.32 18.4881C113.676 19.4231 113.979 20.3776 114.228 21.3471C114.478 22.3185 114.736 23.2808 115.003 24.2337C115.27 25.1867 115.528 26.1576 115.778 27.1464C116.011 28.1086 116.49 28.9924 117.165 29.7104C117.272 29.6376 117.37 29.5664 117.459 29.4936C117.55 29.4211 117.623 29.3293 117.674 29.2247C117.726 29.1171 117.78 29.0182 117.834 28.928C117.887 28.8378 117.949 28.7389 118.021 28.6314C118.306 27.8045 118.564 26.9591 118.795 26.0951C119.027 25.2312 119.267 24.3679 119.517 23.5051C119.766 22.6424 119.995 21.7883 120.204 20.9428C120.422 20.0846 120.71 19.2457 121.063 18.4344C121.137 18.3952 121.208 18.3499 121.276 18.299C121.339 18.249 121.411 18.2124 121.488 18.1915C121.567 18.1733 121.648 18.1646 121.729 18.1655H121.969L122.61 18.5957C122.642 18.661 122.678 18.7242 122.718 18.7848C122.755 18.8428 122.782 18.9067 122.797 18.9739C122.816 19.0441 122.825 19.1164 122.825 19.189V19.4058L121.966 22.4261C121.683 23.4299 121.406 24.4448 121.135 25.4706C120.863 26.4965 120.577 27.513 120.276 28.5204C119.972 29.5317 119.436 30.456 118.711 31.2179C118.568 31.3267 118.426 31.4255 118.284 31.5146C118.141 31.6049 117.989 31.6777 117.83 31.7314C117.664 31.7869 117.49 31.8145 117.315 31.813H116.789C116.641 31.7742 116.498 31.7189 116.362 31.6482Z" fill="#49DFBA"/>
<path d="M123.946 31.4868L123.678 31.0011V20.2108C123.714 20.0687 123.741 19.9244 123.759 19.7788C123.778 19.6317 123.813 19.4873 123.865 19.3486L124.027 18.9166C124.078 18.7742 124.161 18.645 124.267 18.5384C124.339 18.4661 124.419 18.4026 124.506 18.3494C124.599 18.2938 124.697 18.249 124.8 18.2158C124.911 18.1794 125.027 18.1613 125.143 18.162H125.487C125.557 18.1967 125.638 18.2331 125.727 18.2696C125.82 18.3063 125.909 18.351 125.993 18.4031C126.083 18.4586 126.165 18.5124 126.234 18.5662C126.31 18.6237 126.382 18.6869 126.449 18.7553C126.976 19.463 127.432 20.222 127.811 21.0209C128.184 21.812 128.566 22.5944 128.958 23.3681C129.35 24.1418 129.741 24.9236 130.133 25.7135L131.318 28.0953L131.371 28.0416V18.8629L131.691 18.3233C131.766 18.2846 131.838 18.2393 131.905 18.188C131.968 18.1379 132.041 18.1013 132.118 18.0805C132.206 18.0599 132.296 18.0505 132.386 18.0527H132.652L133.187 18.3771L133.454 18.8629V29.6566C133.418 29.7982 133.392 29.9419 133.374 30.0869C133.355 30.2346 133.32 30.3796 133.267 30.5188L133.106 30.9508C133.054 31.093 132.972 31.2221 132.865 31.329C132.793 31.4012 132.712 31.4642 132.625 31.5163C132.533 31.5731 132.434 31.6185 132.331 31.6516C132.22 31.6883 132.104 31.7065 131.988 31.7054H131.644C131.574 31.6707 131.493 31.6343 131.404 31.5979C131.312 31.5598 131.223 31.5145 131.138 31.4626C131.055 31.4132 130.974 31.3594 130.897 31.3012C130.821 31.2437 130.749 31.1805 130.682 31.1121C130.155 30.4044 129.699 29.6455 129.32 28.8465C128.948 28.0554 128.566 27.2731 128.173 26.4993C127.78 25.7256 127.389 24.9433 126.998 24.1522L125.822 21.779L125.768 21.8328V31.0046L125.449 31.5441C125.374 31.5829 125.302 31.6281 125.234 31.6794C125.171 31.7295 125.099 31.7661 125.021 31.787C124.933 31.8067 124.843 31.816 124.753 31.8147H124.487L123.946 31.4868Z" fill="#49DFBA"/>
</g>
<defs>
<linearGradient id="paint0_linear_8002_31" x1="31.8482" y1="34.3597" x2="14.55" y2="13.397" gradientUnits="userSpaceOnUse">
<stop stop-color="#8B85FF"/>
<stop offset="0.99" stop-color="#49DFBA"/>
</linearGradient>
<clipPath id="clip0_8002_31">
<rect width="133.455" height="40" fill="white"/>
</clipPath>
</defs>
</svg>
